<svg width="49" height="48" viewBox="0 0 49 48" fill="none" xmlns="http://www.w3.org/2000/svg">
<path d="M22.1641 40.7463C26.9826 40.7463 34.4976 40.8534 39.1644 37.9755C44.865 34.4601 47.7578 28.7033 47.8114 23.5599C47.9169 13.441 38.4229 4.00006 25.7862 4.00006C20.0163 4.00006 13.4283 5.21184 9.16443 7.89215C4.0899 11.082 0.223995 15.314 0.223995 22.071C0.224036 32.9975 7.58283 40.7463 22.1641 40.7463Z" fill="#FFDBB5"/>
<path d="M22.2796 34.9443C26.797 34.9443 33.8423 35.0344 38.2174 32.6109C43.5618 29.6506 46.2737 24.8028 46.324 20.4715C46.4229 11.9503 37.5223 4.00005 25.6754 4.00005C20.2661 4.00005 14.0899 5.0205 10.0924 7.2776C5.33507 9.96381 1.71079 13.5276 1.71079 19.2177C1.71083 28.419 8.60969 34.9443 22.2796 34.9443Z" fill="#FFBD7A"/>
</svg>
