<svg width="49" height="48" viewBox="0 0 49 48" fill="none" xmlns="http://www.w3.org/2000/svg">
<path d="M23.3732 42C30.7944 42 39.2741 36.9837 43.3388 32.7801C46.1288 29.8947 47.7824 26.2518 47.8252 22.1707C47.9307 12.1024 37.5712 4 24.9309 4C19.1594 4 13.8531 5.98013 9.58799 8.64702C4.51202 11.8209 0.22433 15.4475 0.22433 22.1707C0.224371 33.0425 11.3407 42 23.3732 42Z" fill="#FFDBB5"/>
<path d="M23.4134 36C30.3708 36 38.3204 31.7757 42.1311 28.2359C44.7467 25.8061 46.297 22.7383 46.3371 19.3016C46.436 10.8231 36.724 4 24.8737 4C19.4629 4 14.4883 5.66747 10.4897 7.91328C5.731 10.586 1.71129 13.64 1.71129 19.3016C1.71132 28.4569 12.1329 36 23.4134 36Z" fill="#FFBD7A"/>
</svg>
