<svg width="49" height="48" viewBox="0 0 49 48" fill="none" xmlns="http://www.w3.org/2000/svg">
<path d="M22.1641 38.9443C26.9826 38.9443 34.4976 39.0344 39.1644 36.6109C44.865 33.6506 47.7578 28.8028 47.8114 24.4715C47.9169 15.9503 38.4229 8.00005 25.7862 8.00005C20.0163 8.00005 13.4283 9.0205 9.16443 11.2776C4.0899 13.9638 0.223995 17.5276 0.223995 23.2177C0.224036 32.419 7.58283 38.9443 22.1641 38.9443Z" fill="#FFDBB5"/>
<path d="M22.2796 31.2082C26.797 31.2082 33.8423 31.2758 38.2174 29.4582C43.5618 27.2379 46.2737 23.602 46.324 20.3536C46.4229 13.9627 37.5223 8.00001 25.6754 8.00001C20.2661 8.00001 14.0899 8.76534 10.0924 10.4582C5.33507 12.4728 1.71079 15.1457 1.71079 19.4132C1.71083 26.3142 8.60969 31.2082 22.2796 31.2082Z" fill="#FFBD7A"/>
</svg>
