<svg width="49" height="48" viewBox="0 0 49 48" fill="none" xmlns="http://www.w3.org/2000/svg">
<path d="M23.3732 40C30.7944 40 39.2741 35.7757 43.3388 32.2359C46.1288 29.8061 47.7824 26.7383 47.8252 23.3016C47.9307 14.823 37.5712 7.99999 24.9309 7.99999C19.1594 7.99999 13.8531 9.66747 9.58799 11.9133C4.51202 14.586 0.22433 17.64 0.22433 23.3016C0.224371 32.4569 11.3407 40 23.3732 40Z" fill="#FFDBB5"/>
<path d="M23.4134 32C30.3708 32 38.3204 28.8318 42.1311 26.1769C44.7467 24.3546 46.297 22.0538 46.3371 19.4762C46.436 13.1173 36.724 8 24.8737 8C19.4629 8 14.4883 9.25061 10.4897 10.935C5.731 12.9395 1.71129 15.23 1.71129 19.4762C1.71132 26.3426 12.1329 32 23.4134 32Z" fill="#FFBD7A"/>
</svg>
