<svg width="49" height="48" viewBox="0 0 49 48" fill="none" xmlns="http://www.w3.org/2000/svg">
<path d="M22.6444 40C33.3489 40 47.7142 32.3485 47.8117 24.4715C47.9172 15.9503 38.4232 8 25.7865 8C20.0166 8 13.8492 9.51488 9.58529 11.772C4.51075 14.4582 0.224271 17.5275 0.224271 23.2176C0.224312 32.4189 10.6152 40 22.6444 40Z" fill="#FFDBB5"/>
<path d="M22.7301 32C32.7656 32 46.233 26.2613 46.3244 20.3536C46.4233 13.9627 37.5227 8 25.6758 8C20.2665 8 14.4846 9.13616 10.4872 10.829C5.72981 12.8436 1.71123 15.1457 1.71123 19.4132C1.71127 26.3142 11.4528 32 22.7301 32Z" fill="#FFBD7A"/>
</svg>
