<svg width="49" height="48" viewBox="0 0 49 48" fill="none" xmlns="http://www.w3.org/2000/svg">
<path d="M25.9537 40C33.3632 40 39.2879 36.4173 43.3461 32.7957C46.1317 30.3098 47.7828 27.1712 47.8255 23.6551C47.9308 14.9807 37.5877 8 24.9673 8C12.347 8 1.61512 14.1456 0.299682 23.6551C-0.498594 29.4254 3.49706 32.5575 8.00699 35.1278C12.4861 37.6806 19.7274 40 25.9537 40Z" fill="#FFDBB5"/>
<path d="M25.8326 32C32.779 32 38.3334 29.313 42.138 26.5968C44.7495 24.7324 46.2973 22.3784 46.3374 19.7413C46.4361 13.2355 36.7394 8 24.9078 8C13.0762 8 3.01515 12.6092 1.78193 19.7413C1.03355 24.0691 4.77947 26.4181 9.00753 28.3459C13.2067 30.2605 19.9955 32 25.8326 32Z" fill="#FFBD7A"/>
</svg>
