<svg width="48" height="48" viewBox="0 0 48 48" fill="none" xmlns="http://www.w3.org/2000/svg">
<path d="M22.6288 48C33.3333 48 47.6985 36.5227 47.7961 24.7072C47.9016 11.9254 38.4076 -5.66645e-06 25.7709 -5.66645e-06C20.001 -5.66645e-06 13.8336 2.27232 9.56966 5.65797C4.49513 9.68729 0.208646 14.2913 0.208646 22.8264C0.208687 36.6284 10.5996 48 22.6288 48Z" fill="#FFDBB5"/>
<path d="M22.6288 48C33.3333 48 47.6985 36.5227 47.7961 24.7072C47.9016 11.9254 38.4076 -5.66645e-06 25.7709 -5.66645e-06C20.001 -5.66645e-06 13.8336 2.27232 9.56966 5.65797C4.49513 9.68729 0.208646 14.2913 0.208646 22.8264C0.208687 36.6284 10.5996 48 22.6288 48Z" fill="#FFBD7A"/>
</svg>
