<svg width="48" height="48" viewBox="0 0 48 48" fill="none" xmlns="http://www.w3.org/2000/svg">
<path d="M25.9381 48C33.3476 48 39.2723 42.626 43.3305 37.1936C46.1161 33.4647 47.7671 28.7568 47.8098 23.4826C47.9152 10.471 37.572 -4.71682e-06 24.9517 -4.71682e-06C12.3313 -4.71682e-06 1.5995 9.21835 0.284057 23.4826C-0.514219 32.1381 3.48143 36.8362 7.99137 40.6918C12.4705 44.521 19.7118 48 25.9381 48Z" fill="#FFDBB5"/>
<path d="M25.8574 44C32.9581 44 38.6359 39.0738 42.5251 34.0941C45.1946 30.676 46.7768 26.3604 46.8178 21.5257C46.9187 9.59842 37.0065 -6.85743e-06 24.912 -6.85743e-06C12.8175 -6.85743e-06 2.53285 8.45015 1.27222 21.5257C0.507207 29.4599 4.33637 33.7665 8.65839 37.3008C12.9509 40.8109 19.8905 44 25.8574 44Z" fill="#FFBD7A"/>
</svg>
