<svg width="48" height="48" viewBox="0 0 48 48" fill="none" xmlns="http://www.w3.org/2000/svg">
<path d="M22.6288 48C33.3333 48 47.6985 36.5227 47.7961 24.7072C47.9016 11.9254 38.4076 -5.66645e-06 25.7709 -5.66645e-06C20.001 -5.66645e-06 13.8336 2.27232 9.56966 5.65797C4.49513 9.68729 0.208646 14.2913 0.208646 22.8264C0.208687 36.6284 10.5996 48 22.6288 48Z" fill="#FFDBB5"/>
<path d="M22.6859 44C32.9444 44 46.7111 33.4791 46.8046 22.6483C46.9057 10.9316 37.8073 -8.7601e-06 25.6971 -8.7601e-06C20.1676 -8.7601e-06 14.2572 2.08296 10.1709 5.18647C5.30783 8.88001 1.19995 13.1004 1.19995 20.9242C1.19999 33.576 11.158 44 22.6859 44Z" fill="#FFBD7A"/>
</svg>
