<svg width="48" height="48" viewBox="0 0 48 48" fill="none" xmlns="http://www.w3.org/2000/svg">
<path d="M22.1484 46.4163C26.967 46.4163 34.482 46.5516 39.1488 42.9163C44.8494 38.4758 47.7422 31.2041 47.7958 24.7072C47.9013 11.9254 38.4073 1.68428e-05 25.7706 1.68428e-05C20.0007 1.68428e-05 13.4127 1.53069 9.1488 4.91634C4.07427 8.94565 0.20837 14.2913 0.20837 22.8264C0.208411 36.6284 7.5672 46.4163 22.1484 46.4163Z" fill="#FFDBB5"/>
<path d="M22.2261 42.5483C26.8439 42.5483 34.0458 42.6723 38.5181 39.34C43.9812 35.2696 46.7534 28.6038 46.8048 22.6483C46.9059 10.9317 37.8075 5.16207e-05 25.6973 5.16207e-05C20.1679 5.16207e-05 13.8544 1.40317 9.76813 4.50668C4.90504 8.20022 1.20022 13.1004 1.20022 20.9243C1.20026 33.5761 8.25243 42.5483 22.2261 42.5483Z" fill="#FFBD7A"/>
</svg>
