<svg width="48" height="48" viewBox="0 0 48 48" fill="none" xmlns="http://www.w3.org/2000/svg">
<path d="M25.9381 48C33.3476 48 39.2723 42.626 43.3305 37.1936C46.1161 33.4647 47.7671 28.7568 47.8098 23.4826C47.9152 10.471 37.572 -4.71682e-06 24.9517 -4.71682e-06C12.3313 -4.71682e-06 1.5995 9.21835 0.284057 23.4826C-0.514219 32.1381 3.48143 36.8362 7.99137 40.6918C12.4705 44.521 19.7118 48 25.9381 48Z" fill="#FFDBB5"/>
<path d="M25.9381 48C33.3476 48 39.2723 42.626 43.3305 37.1936C46.1161 33.4647 47.7671 28.7568 47.8098 23.4826C47.9152 10.471 37.572 -4.71682e-06 24.9517 -4.71682e-06C12.3313 -4.71682e-06 1.5995 9.21835 0.284057 23.4826C-0.514219 32.1381 3.48143 36.8362 7.99137 40.6918C12.4705 44.521 19.7118 48 25.9381 48Z" fill="#FFBD7A"/>
</svg>
