<svg width="24" height="24" viewBox="0 0 24 24" fill="none" xmlns="http://www.w3.org/2000/svg">
<path d="M20 12.5732C15.7301 14.4709 13.0938 17.5361 13.0938 21L12.0938 21L11.0938 21C11.0938 17.5361 8.45741 14.4709 4.1875 12.5732L5 10.7451C7.3088 11.7712 8.99197 12.9604 10.4174 14.7378C10.5475 14.9001 11.1768 16.3749 11.2975 16.5429L11.4648 16.4755C11.4648 16.4755 11.0938 14.8305 11.0938 14.2253L11.0938 2.65912L12.0938 2.65912L13.0938 2.65912L13.0938 14.2253C13.0938 14.8305 12.7227 16.4755 12.7227 16.4755L12.89 16.5429C13.0107 16.3749 13.64 14.9001 13.7701 14.7378C15.1955 12.9604 16.8787 11.7712 19.1875 10.7451L20 12.5732Z" fill="currentColor"/>
</svg>
