<svg width="24" height="24" viewBox="0 0 24 24" fill="none" xmlns="http://www.w3.org/2000/svg">
<path d="M12.9141 4.09375C14.8118 8.36366 17.877 11 21.3409 11V12V13C17.877 13 14.8118 15.6363 12.9141 19.9062L11.0859 19.0937C12.1121 16.785 13.3013 15.1018 15.0787 13.6764C15.241 13.5462 16.7158 12.917 16.8838 12.7963L16.8164 12.6289C16.8164 12.6289 15.1714 13 14.5662 13L3 13L3 12V11L14.5662 11C15.1714 11 16.8164 11.3711 16.8164 11.3711L16.8838 11.2037C16.7158 11.083 15.241 10.4538 15.0787 10.3236C13.3013 8.89822 12.1121 7.21505 11.0859 4.90625L12.9141 4.09375Z" fill="currentColor"/>
</svg>
