<svg width="24" height="24" viewBox="0 0 24 24" fill="none" xmlns="http://www.w3.org/2000/svg">
<path d="M11.4268 4.09375C9.52908 8.36366 6.46392 11 3.00001 11V12V13C6.46392 13 9.52908 15.6363 11.4268 19.9062L13.2549 19.0937C12.2288 16.785 11.0396 15.1018 9.26219 13.6764C9.09991 13.5462 7.62512 12.917 7.45706 12.7963L7.52447 12.6289C7.52447 12.6289 9.1695 13 9.77473 13L21.3409 13L21.3409 12V11L9.77472 11C9.1695 11 7.52447 11.3711 7.52447 11.3711L7.45706 11.2037C7.62512 11.083 9.09991 10.4538 9.26219 10.3236C11.0396 8.89822 12.2288 7.21505 13.2549 4.90625L11.4268 4.09375Z" fill="currentColor"/>
</svg>
