<svg width="24" height="24" viewBox="0 0 24 24" fill="none" xmlns="http://www.w3.org/2000/svg">
<g clip-path="url(#clip0_313_13528)">
<path d="M6.86022 18.0414C11.2214 16.364 15.253 16.6672 17.7023 19.1166L18.4094 18.4095L19.1165 17.7023C16.6672 15.253 16.364 11.2214 18.0413 6.86024L16.1741 6.14209C15.2672 8.50024 14.9179 10.5313 15.1668 12.7961C15.1895 13.0028 15.7874 14.4906 15.8209 14.6948L15.6549 14.7655C15.6549 14.7655 14.754 13.3399 14.3261 12.9119L6.14758 4.7334L5.44048 5.44051L4.73337 6.14761L12.9119 14.3261C13.3398 14.7541 14.7655 15.6549 14.7655 15.6549L14.6948 15.8209C14.4906 15.7874 13.0028 15.1895 12.796 15.1668C10.5313 14.9179 8.50022 15.2672 6.14206 16.1742L6.86022 18.0414Z" fill="currentColor"/>
</g>
<defs>
<clipPath id="clip0_313_13528">
<rect width="24" height="24" fill="white" transform="matrix(1 0 0 -1 0 24)"/>
</clipPath>
</defs>
</svg>
