<svg width="24" height="24" viewBox="0 0 24 24" fill="none" xmlns="http://www.w3.org/2000/svg">
<path d="M20 11.4268C15.7301 9.52908 13.0938 6.46392 13.0938 3.00001L12.0938 3.00001L11.0938 3.00001C11.0938 6.46392 8.45741 9.52908 4.1875 11.4268L5 13.2549C7.3088 12.2288 8.99197 11.0396 10.4174 9.26219C10.5475 9.09991 11.1768 7.62512 11.2975 7.45706L11.4648 7.52447C11.4648 7.52447 11.0938 9.1695 11.0938 9.77473L11.0938 21.3409L12.0938 21.3409L13.0938 21.3409L13.0938 9.77472C13.0938 9.1695 12.7227 7.52447 12.7227 7.52447L12.89 7.45706C13.0107 7.62512 13.64 9.09991 13.7701 9.26219C15.1955 11.0396 16.8787 12.2288 19.1875 13.2549L20 11.4268Z" fill="currentColor"/>
</svg>
