<svg width="24" height="24" viewBox="0 0 24 24" fill="none" xmlns="http://www.w3.org/2000/svg">
<g clip-path="url(#clip0_313_13525)">
<path d="M17.1398 5.95863C12.7786 7.63601 8.74703 7.33279 6.29768 4.88344L5.59057 5.59054L4.88346 6.29765C7.33282 8.74701 7.63604 12.7786 5.95866 17.1398L7.82586 17.8579C8.73284 15.4998 9.08214 13.4687 8.83324 11.2039C8.81052 10.9972 8.21263 9.50937 8.17912 9.30521L8.34514 9.23452C8.34514 9.23452 9.24595 10.6601 9.67391 11.0881L17.8524 19.2666L18.5595 18.5595L19.2666 17.8524L11.0881 9.67388C10.6602 9.24592 9.23455 8.34511 9.23455 8.34511L9.30523 8.17909C9.5094 8.2126 10.9972 8.81049 11.204 8.83321C13.4687 9.08211 15.4998 8.73282 17.8579 7.82583L17.1398 5.95863Z" fill="currentColor"/>
</g>
<defs>
<clipPath id="clip0_313_13525">
<rect width="24" height="24" fill="white" transform="matrix(-1 0 0 1 24 0)"/>
</clipPath>
</defs>
</svg>
