<svg width="24" height="24" viewBox="0 0 24 24" fill="none" xmlns="http://www.w3.org/2000/svg">
<g clip-path="url(#clip0_313_13527)">
<path d="M5.95866 6.86022C7.63604 11.2214 7.33282 15.253 4.88347 17.7023L5.59057 18.4094L6.29768 19.1165C8.74704 16.6672 12.7786 16.364 17.1398 18.0413L17.8579 16.1741C15.4998 15.2672 13.4687 14.9179 11.204 15.1668C10.9972 15.1895 9.5094 15.7874 9.30524 15.8209L9.23455 15.6549C9.23455 15.6549 10.6602 14.754 11.0881 14.3261L19.2666 6.14758L18.5595 5.44048L17.8524 4.73337L9.67391 12.9119C9.24595 13.3398 8.34514 14.7655 8.34514 14.7655L8.17912 14.6948C8.21263 14.4906 8.81052 13.0028 8.83324 12.796C9.08214 10.5313 8.73285 8.50022 7.82586 6.14206L5.95866 6.86022Z" fill="currentColor"/>
</g>
<defs>
<clipPath id="clip0_313_13527">
<rect width="24" height="24" fill="white" transform="matrix(-1 0 0 1 24 0)"/>
</clipPath>
</defs>
</svg>
