<svg width="49" height="48" viewBox="0 0 49 48" fill="none" xmlns="http://www.w3.org/2000/svg">
<path d="M22.6444 42C33.3489 42 47.7142 32.9138 47.8117 23.5599C47.9172 13.4409 38.4232 3.99999 25.7865 3.99999C20.0166 3.99999 13.8492 5.79892 9.58529 8.47923C4.51075 11.6691 0.224271 15.314 0.224271 22.0709C0.224312 32.9975 10.6152 42 22.6444 42Z" fill="#FFDBB5"/>
<path d="M22.7301 36C32.7656 36 46.233 28.3485 46.3244 20.4715C46.4233 11.9503 37.5227 4 25.6758 4C20.2665 4 14.4846 5.51488 10.4872 7.77198C5.72981 10.4582 1.71123 13.5275 1.71123 19.2176C1.71127 28.4189 11.4528 36 22.7301 36Z" fill="#FFBD7A"/>
</svg>
