<svg width="48" height="48" viewBox="0 0 48 48" fill="none" xmlns="http://www.w3.org/2000/svg">
<path d="M23.3576 48C30.7788 48 39.2585 41.6636 43.3231 36.3538C46.1131 32.7091 47.7668 28.1075 47.8095 22.9524C47.9151 10.2346 37.5556 -4.71143e-06 24.9153 -4.71143e-06C19.1438 -4.71143e-06 13.8375 2.50121 9.57236 5.86992C4.4964 9.87906 0.208705 14.46 0.208705 22.9524C0.208746 36.6853 11.325 48 23.3576 48Z" fill="#FFDBB5"/>
<path d="M23.3576 48C30.7788 48 39.2585 41.6636 43.3231 36.3538C46.1131 32.7091 47.7668 28.1075 47.8095 22.9524C47.9151 10.2346 37.5556 -4.71143e-06 24.9153 -4.71143e-06C19.1438 -4.71143e-06 13.8375 2.50121 9.57236 5.86992C4.4964 9.87906 0.208705 14.46 0.208705 22.9524C0.208746 36.6853 11.325 48 23.3576 48Z" fill="#FFBD7A"/>
</svg>
