<svg width="88" height="88" viewBox="0 0 88 88" fill="none" xmlns="http://www.w3.org/2000/svg">
  <path d="M24.7014 29.5214C17.0989 41.4627 17.0327 63.9407 27.398 70.6927C38.6112 77.997 55.8856 74.1111 64.8602 60.0144C68.9581 53.5778 71.3314 45.4203 71.3697 38.7601C71.4152 30.8338 70.3936 23.4635 62.8559 18.6647C50.6669 10.9046 33.2446 16.1024 24.7014 29.5214Z" fill="#FFBBC7"/>
  <path d="M31.3337 33.8782C24.2065 45.0732 23.1774 65.5307 31.8995 71.227C41.335 77.3892 56.5251 73.1065 64.9389 59.8909C68.7806 53.8566 71.197 46.3308 71.5181 40.2685C71.9003 33.0537 71.3303 26.3909 64.9829 22.3498C54.7184 15.815 39.343 21.2979 31.3337 33.8782Z" fill="#FF7AA0"/>
</svg>
