<svg width="41" height="41" viewBox="0 0 41 41" fill="none" xmlns="http://www.w3.org/2000/svg">
  <!-- Figma hero `428:14900`  INSTANCE `428:14921` (orbit 3). -->
  <path d="M15.5543 31.4725C22.2613 33.9104 33.3313 31.4889 35.5227 25.6503C37.8933 19.3342 34.0949 11.2567 26.1772 8.3788C22.562 7.06475 18.2881 6.78731 15.0061 7.49561C11.1001 8.33857 7.58426 9.64607 6.04542 13.8797C3.557 20.7259 8.01727 28.733 15.5543 31.4725Z" fill="#FFDBB5"/>
  <path d="M16.9744 27.7327C23.2622 30.0182 33.443 28.2911 35.2942 23.3766C37.2968 18.06 33.5306 11.0517 26.1078 8.35362C22.7186 7.1217 18.7509 6.75407 15.7322 7.2579C12.1397 7.85751 8.92275 8.86544 7.62688 12.4306C5.53137 18.1958 9.90847 25.1644 16.9744 27.7327Z" fill="#FFBD7A"/>
</svg>
