<svg width="34" height="34" viewBox="0 0 34 34" fill="none" xmlns="http://www.w3.org/2000/svg">
  <!-- Figma hero `428:14900`  INSTANCE `428:14907` (orbit 4). -->
  <path d="M29.5006 12.9326C27.377 7.47612 18.6767 2.43057 12.6346 4.72485C6.09834 7.20678 1.90299 14.412 4.40991 20.8534C5.55457 23.7945 7.93636 26.4875 10.508 27.9893C13.5686 29.7766 16.7658 31.0482 21.1165 29.355C28.1518 26.6169 31.887 19.0643 29.5006 12.9326Z" fill="#FFDBB5"/>
  <path d="M27.4966 13.8159C25.4615 8.58674 17.3675 3.65654 11.8281 5.75756C5.83563 8.03042 2.06837 14.8369 4.47084 21.0099C5.5678 23.8284 7.80209 26.428 10.1947 27.8952C13.0422 29.6413 16.0084 30.898 19.9965 29.3459C26.4456 26.836 29.7835 19.6921 27.4966 13.8159Z" fill="#FFBD7A"/>
</svg>
