<svg width="67" height="41" viewBox="0 0 67 41" fill="none" xmlns="http://www.w3.org/2000/svg">
  <!-- Figma hero `428:14900`  INSTANCE `428:14911` (orbit 6). -->
  <path d="M23.6135 46.324C32.7276 52.1232 49.1036 53.3907 53.454 46.7369C58.1601 39.5389 54.3837 27.6266 43.6245 20.7807C38.7119 17.6549 32.6402 15.6036 27.787 15.2154C22.0112 14.7534 16.6988 15.0446 13.6163 19.8892C8.63154 27.7234 13.3716 39.8073 23.6135 46.324Z" fill="#DEC3F5"/>
  <path d="M28.0204 39.5591C36.5648 44.9958 51.1401 47.4057 54.4184 42.4252C57.9649 37.0374 53.617 27.1388 43.5302 20.7208C38.9247 17.7904 33.3863 15.6254 29.0657 14.9012C23.9238 14.0392 19.2552 13.8222 16.9432 17.4556C13.2047 23.3313 18.4186 33.4497 28.0204 39.5591Z" fill="#BA8BFF"/>
</svg>
