<svg width="32" height="32" viewBox="0 0 32 32" fill="none" xmlns="http://www.w3.org/2000/svg">
  <path d="M15.0859 32C22.2222 32 31.799 24.3485 31.864 16.4715C31.9344 7.95029 25.6051 2.60364e-05 17.1806 2.60364e-05C13.334 2.60364e-05 9.22238 1.51491 6.37977 3.77201C2.99675 6.45822 0.139098 9.52757 0.139098 15.2176C0.139125 24.419 7.0664 32 15.0859 32Z" fill="#DEC3F5"/>
  <path d="M15.1239 29.3333C21.9629 29.3333 31.1407 22.3194 31.203 15.0989C31.2704 7.28775 25.2048 2.50589e-06 17.1313 2.50589e-06C13.445 2.50589e-06 9.50474 1.38865 6.78058 3.45766C3.53851 5.92002 0.799928 8.73359 0.799928 13.9495C0.799954 22.384 7.4386 29.3333 15.1239 29.3333Z" fill="#BA8BFF"/>
</svg>
