<svg preserveAspectRatio="none" width="100%" height="100%" overflow="visible" style="display: block;" viewBox="0 0 37.6647 42.1717" fill="none" xmlns="http://www.w3.org/2000/svg">
<g id="Group 47">
<path id="Vector 266" d="M32.3907 29.0374L31.622 28.5936C24.4425 24.4485 21.9869 15.2654 26.1393 8.09015L26.5314 7.41249" stroke="var(--stroke-0, #2C002A)" stroke-width="3" stroke-linecap="round" stroke-linejoin="round"/>
<path id="Vector 268" d="M26.488 7.31367L26.0442 8.08244C21.899 15.2619 12.716 17.7175 5.54071 13.5652L4.86305 13.173" stroke="var(--stroke-0, #2C002A)" stroke-width="2" stroke-linecap="round" stroke-linejoin="round" stroke-dasharray="2 4"/>
<path id="Vector 267" d="M26.5701 7.31348L10.6676 34.858" stroke="var(--stroke-0, #2C002A)" stroke-width="3" stroke-linecap="round" stroke-linejoin="round"/>
<circle id="Ellipse 18" cx="4.84674" cy="13.1344" r="3.95735" transform="rotate(-15 4.84674 13.1344)" fill="var(--fill-0, #2C002A)"/>
<circle id="Ellipse 20" cx="5.97154" cy="5.97154" r="5.97154" transform="matrix(-0.965926 0.258819 0.258819 0.965926 30.7928 0)" fill="var(--fill-0, #2C002A)"/>
<circle id="Ellipse 19" cx="32.3907" cy="29.0371" r="4.30617" transform="rotate(-15 32.3907 29.0371)" fill="var(--fill-0, #2C002A)"/>
<circle id="Ellipse 21" cx="5.97154" cy="5.97154" r="5.97154" transform="matrix(-0.965926 0.258819 0.258819 0.965926 14.89 27.5444)" fill="var(--fill-0, #2C002A)"/>
</g>
</svg>
