<svg width="24" height="24" viewBox="0 0 24 24" fill="none" xmlns="http://www.w3.org/2000/svg">
<g clip-path="url(#clip0_313_13526)">
<path d="M18.0413 17.1398C16.364 12.7786 16.6672 8.74703 19.1165 6.29768L18.4094 5.59057L17.7023 4.88346C15.253 7.33282 11.2214 7.63604 6.86021 5.95866L6.14206 7.82586C8.50021 8.73284 10.5313 9.08214 12.796 8.83324C13.0028 8.81052 14.4906 8.21263 14.6948 8.17912L14.7654 8.34514C14.7654 8.34514 13.3398 9.24595 12.9119 9.67391L4.73337 17.8524L5.44048 18.5595L6.14758 19.2666L14.3261 11.0881C14.754 10.6602 15.6549 9.23455 15.6549 9.23455L15.8209 9.30523C15.7874 9.5094 15.1895 10.9972 15.1668 11.204C14.9179 13.4687 15.2672 15.4998 16.1741 17.8579L18.0413 17.1398Z" fill="currentColor"/>
</g>
<defs>
<clipPath id="clip0_313_13526">
<rect width="24" height="24" fill="white" transform="matrix(1 0 0 -1 0 24)"/>
</clipPath>
</defs>
</svg>
