<svg width="997" height="997" viewBox="0 0 997 997" fill="none" xmlns="http://www.w3.org/2000/svg">

<path d="M486.506 776.804C517.066 776.804 564.728 777.662 594.325 754.607C630.48 726.444 648.826 680.325 649.166 639.121C649.835 558.056 589.623 482.423 509.478 482.423C472.884 482.423 431.102 492.131 404.059 513.603C371.876 539.158 347.357 573.061 347.357 627.192C347.357 714.727 394.028 776.804 486.506 776.804Z" fill="#FFBBC7"/>
<path d="M486.782 752.271C516.069 752.271 561.745 753.058 590.109 731.924C624.757 706.108 642.339 663.832 642.665 626.062C643.306 551.752 585.603 482.422 508.797 482.422C473.728 482.422 433.687 491.32 407.771 511.004C376.928 534.429 353.431 565.507 353.431 615.127C353.432 695.368 398.158 752.271 486.782 752.271Z" fill="#FF7AA0"/>
<g opacity="0.16">
<path d="M500.134 757.369C560.793 757.369 642.196 690.657 642.749 621.98C643.347 547.685 589.547 478.369 517.939 478.369C485.243 478.369 450.295 491.577 426.132 511.256C397.377 534.677 373.087 561.437 373.087 611.048C373.087 691.272 431.969 757.369 500.134 757.369Z" fill="#2C002A"/>
</g>
<path d="M521.551 762.848C589.441 762.848 680.548 690.056 681.167 615.12C681.836 534.055 621.623 458.422 541.478 458.422C504.884 458.422 465.77 472.833 438.727 494.306C406.543 519.861 379.357 549.06 379.357 603.192C379.358 690.727 445.259 762.848 521.551 762.848Z" fill="#DEC3F5"/>
<path d="M521.7 737.479C586.761 737.479 674.072 670.753 674.665 602.062C675.306 527.752 617.602 458.421 540.797 458.421C505.728 458.421 468.243 471.632 442.327 491.315C411.484 514.74 385.431 541.507 385.431 591.127C385.431 671.368 448.587 737.479 521.7 737.479Z" fill="#BA8BFF"/>
<g opacity="0.16">
<path d="M515.878 730.848C561.107 730.848 597.272 702.298 622.044 673.438C639.048 653.629 649.126 628.618 649.387 600.599C650.03 531.475 586.894 475.848 509.857 475.848C432.82 475.848 367.311 524.82 359.282 600.599C354.409 646.581 378.799 671.54 406.328 692.023C433.67 712.365 477.872 730.848 515.878 730.848Z" fill="#2C002A"/>
</g>
<path d="M510.539 730.848C557.532 730.848 595.107 696.765 620.845 662.311C638.512 638.662 648.983 608.803 649.254 575.353C649.922 492.831 584.324 426.422 504.283 426.422C424.242 426.422 356.179 484.887 347.836 575.353C342.773 630.248 368.114 660.045 396.717 684.497C425.125 708.783 471.051 730.848 510.539 730.848Z" fill="#FFDBB5"/>
<path d="M509.814 705.479C554.848 705.479 590.858 674.236 615.524 642.653C632.454 620.975 642.489 593.605 642.749 562.942C643.389 487.297 580.524 426.422 503.818 426.422C427.112 426.422 361.885 480.014 353.89 562.942C349.038 613.262 373.323 640.576 400.734 662.991C427.958 685.252 471.97 705.479 509.814 705.479Z" fill="#FFBD7A"/>
<path d="M385.97 592.633C385.97 575.175 390.67 562.714 403.92 562.715C417.171 562.714 421.871 575.175 421.871 592.633C421.871 610.09 417.171 622.551 403.92 622.55C390.67 622.551 385.97 610.09 385.97 592.633Z" fill="#2C002A"/>
<path d="M486.034 617.869C486.034 594.529 492.319 577.868 510.034 577.869C527.75 577.868 534.034 594.529 534.034 617.869C534.034 641.21 527.75 657.87 510.034 657.869C492.319 657.87 486.034 641.21 486.034 617.869Z" fill="#2C002A"/>
</svg>
