<svg width="997" height="997" viewBox="0 0 997 997" fill="none" xmlns="http://www.w3.org/2000/svg">

<path d="M427.343 700.303C457.848 698.456 505.463 696.252 533.903 676.243C568.644 651.803 584.749 614.249 583.116 581.669C579.904 517.569 516.181 461.443 436.183 466.289C399.656 468.501 358.415 478.699 332.449 497.302C301.548 519.441 278.697 547.715 281.288 590.491C285.478 659.662 335.035 705.895 427.343 700.303Z" fill="#FFBBC7"/>
<path d="M425.852 663.528C454.449 661.795 499.085 659.665 525.853 642.645C558.551 621.855 573.86 590.125 572.517 562.687C569.876 508.704 510.481 461.787 435.483 466.33C401.239 468.404 362.531 477.233 338.09 493.055C309.003 511.884 287.426 535.835 289.608 571.856C293.137 630.106 339.313 668.77 425.852 663.528Z" fill="#FF7AA0"/>
<g opacity="0.16">
<path d="M420.555 656.518C481.098 660.268 565.154 619.956 568.596 573.31C572.32 522.849 521.542 472.409 450.071 467.982C417.437 465.961 382 472.778 357.055 484.661C327.369 498.802 301.998 515.49 299.91 549.21C296.533 603.738 352.52 652.305 420.555 656.518Z" fill="#2C002A"/>
</g>
<path d="M439.176 654.087C507.018 651.537 595.897 590.529 594.287 531.224C592.546 467.067 530.127 409.495 450.038 412.505C413.47 413.879 374.812 426.749 348.426 444.752C317.025 466.177 290.727 490.298 292.336 533.122C294.939 602.371 362.938 656.952 439.176 654.087Z" fill="#DEC3F5"/>
<path d="M438.291 616.039C501.893 613.648 585.423 561.947 584.126 512.003C582.724 457.975 524.42 409.708 449.338 412.53C415.055 413.818 378.772 424.796 353.975 440.053C324.463 458.211 299.726 478.621 301.081 514.683C303.273 572.998 366.818 618.725 438.291 616.039Z" fill="#BA8BFF"/>
<g opacity="0.16">
<path d="M411.688 606.509C456.672 611.209 494.921 593.141 521.864 573.652C540.357 560.275 552.378 542.203 554.875 520.81C561.035 468.034 502.683 418.949 426.063 410.944C349.443 402.94 280.378 433.572 266.34 490.668C257.822 525.314 280.086 546.928 305.831 565.446C331.4 583.839 373.887 602.56 411.688 606.509Z" fill="#2C002A"/>
</g>
<path d="M424.65 603.26C471.459 599.118 506.51 568.928 529.744 539.49C545.692 519.283 554.039 494.814 551.974 468.412C546.881 403.278 476.904 356.69 397.175 363.745C317.446 370.801 253.727 422.904 251.729 494.981C250.517 538.716 277.839 559.979 308.036 576.741C338.028 593.388 385.315 606.74 424.65 603.26Z" fill="#FFDBB5"/>
<path d="M420.529 565.422C464.413 561.539 497.5 535.8 519.511 510.793C534.62 493.629 542.644 472.935 540.931 450.7C536.706 395.844 471.544 357.164 396.798 363.778C322.052 370.392 261.926 414.841 259.451 475.607C257.949 512.48 283.365 530.173 311.513 544.048C339.468 557.827 383.653 568.685 420.529 565.422Z" fill="#FFBD7A"/>
<path d="M272.408 460.035C272.275 458.531 276.394 457.084 288.272 456.033C300.151 454.982 304.46 455.683 304.593 457.187C304.726 458.691 300.607 460.137 288.729 461.188C276.85 462.24 272.541 461.539 272.408 460.035Z" fill="#2C002A"/>
<path d="M344.203 430.199C343.931 427.12 349.996 424.368 367.643 422.806C385.289 421.245 391.744 422.889 392.016 425.968C392.289 429.047 386.223 431.799 368.577 433.36C350.93 434.922 344.476 433.278 344.203 430.199Z" fill="#2C002A"/>
</svg>
