<svg width="997" height="997" viewBox="0 0 997 997" fill="none" xmlns="http://www.w3.org/2000/svg">

<path d="M427.578 700.303C458.082 698.456 505.698 696.252 534.138 676.243C568.878 651.803 584.983 614.249 583.35 581.669C580.138 517.569 516.415 461.443 436.417 466.289C399.89 468.501 358.649 478.699 332.684 497.302C301.782 519.441 278.931 547.715 281.523 590.491C285.713 659.662 335.27 705.895 427.578 700.303Z" fill="#FFBBC7"/>
<path d="M426.086 663.528C454.684 661.795 499.32 659.665 526.087 642.645C558.785 621.855 574.094 590.125 572.752 562.687C570.11 508.704 510.715 461.787 435.717 466.33C401.473 468.404 362.765 477.233 338.325 493.055C309.238 511.884 287.661 535.835 289.842 571.856C293.371 630.106 339.547 668.77 426.086 663.528Z" fill="#FF7AA0"/>
<g opacity="0.16">
<path d="M420.789 656.518C481.332 660.268 565.388 619.956 568.831 573.31C572.555 522.849 521.776 472.409 450.305 467.982C417.672 465.961 382.234 472.778 357.29 484.661C327.603 498.802 302.233 515.49 300.144 549.21C296.767 603.738 352.754 652.305 420.789 656.518Z" fill="#2C002A"/>
</g>
<path d="M439.41 654.087C507.253 651.537 596.131 590.529 594.521 531.224C592.78 467.067 530.361 409.495 450.273 412.505C413.705 413.879 375.046 426.749 348.661 444.752C317.26 466.177 290.961 490.298 292.571 533.122C295.173 602.371 363.173 656.952 439.41 654.087Z" fill="#DEC3F5"/>
<path d="M438.525 616.039C502.127 613.648 585.657 561.947 584.361 512.003C582.958 457.975 524.655 409.708 449.572 412.53C415.289 413.818 379.006 424.796 354.209 440.053C324.698 458.211 299.96 478.621 301.316 514.683C303.507 572.998 367.052 618.725 438.525 616.039Z" fill="#BA8BFF"/>
<g opacity="0.16">
<path d="M411.922 606.509C456.906 611.209 495.155 593.141 522.098 573.652C540.592 560.275 552.613 542.203 555.11 520.81C561.27 468.034 502.917 418.949 426.298 410.944C349.678 402.94 280.613 433.572 266.575 490.668C258.056 525.314 280.321 546.928 306.065 565.446C331.634 583.839 374.121 602.56 411.922 606.509Z" fill="#2C002A"/>
</g>
<path d="M424.65 603.26C471.459 599.118 506.51 568.928 529.744 539.49C545.692 519.283 554.039 494.814 551.974 468.412C546.881 403.278 476.904 356.69 397.175 363.745C317.446 370.801 253.727 422.904 251.729 494.981C250.517 538.716 277.839 559.979 308.036 576.741C338.028 593.388 385.315 606.74 424.65 603.26Z" fill="#FFDBB5"/>
<path d="M420.529 565.422C464.413 561.539 497.5 535.8 519.511 510.793C534.62 493.629 542.644 472.935 540.931 450.7C536.706 395.844 471.544 357.164 396.798 363.778C322.052 370.392 261.926 414.841 259.451 475.607C257.949 512.48 283.365 530.173 311.513 544.048C339.468 557.827 383.653 568.685 420.529 565.422Z" fill="#FFBD7A"/>
<path d="M272.409 460.036C271.024 444.385 274.249 432.841 286.128 431.791C298.007 430.739 303.209 441.537 304.594 457.188C305.979 472.839 302.753 484.383 290.875 485.433C278.996 486.485 273.793 475.687 272.409 460.036Z" fill="#2C002A"/>
<path d="M344.203 430.2C342.145 406.95 346.937 389.8 364.583 388.24C382.23 386.677 389.958 402.719 392.016 425.969C394.073 449.219 389.281 466.368 371.635 467.929C353.989 469.491 346.26 453.45 344.203 430.2Z" fill="#2C002A"/>
</svg>
