<svg width="997" height="997" viewBox="0 0 997 997" fill="none" xmlns="http://www.w3.org/2000/svg">

<path d="M486.604 708.842C517.164 708.842 564.826 709.521 594.424 691.269C630.578 668.974 648.925 632.463 649.265 599.843C649.934 535.667 589.721 475.79 509.577 475.79C472.983 475.79 431.2 483.476 404.158 500.475C371.974 520.705 347.456 547.546 347.456 590.4C347.456 659.698 394.127 708.842 486.604 708.842Z" fill="#FFBBC7"/>
<path d="M487.339 672.046C515.989 672.046 560.672 672.618 588.42 657.248C622.315 638.473 639.514 607.727 639.833 580.257C640.46 526.214 584.011 475.792 508.875 475.792C474.569 475.792 435.398 482.263 410.045 496.578C379.873 513.615 356.887 536.217 356.887 572.305C356.887 630.661 400.641 672.046 487.339 672.046Z" fill="#FF7AA0"/>
<g opacity="0.16">
<path d="M504.949 669C565.607 669 647.01 623.569 647.563 576.799C648.161 526.205 594.362 479 522.754 479C490.058 479 455.109 487.995 430.947 501.396C402.191 517.346 377.901 535.57 377.901 569.355C377.901 623.987 436.783 669 504.949 669Z" fill="#2C002A"/>
</g>
<path d="M521.646 668.795C589.537 668.795 680.644 611.168 681.262 551.844C681.931 487.668 621.719 427.791 541.574 427.791C504.98 427.791 465.865 439.2 438.823 456.199C406.639 476.43 379.453 499.547 379.453 542.401C379.453 611.699 445.355 668.795 521.646 668.795Z" fill="#DEC3F5"/>
<path d="M522.19 630.742C585.837 630.742 671.25 582.215 671.83 532.257C672.457 478.214 616.008 427.792 540.872 427.792C506.566 427.792 469.895 437.399 444.543 451.714C414.371 468.751 388.884 488.217 388.884 524.305C388.884 582.661 450.667 630.742 522.19 630.742Z" fill="#BA8BFF"/>
<g opacity="0.16">
<path d="M516.049 612C561.278 612 597.443 590.056 622.215 567.874C639.219 552.648 649.297 533.424 649.558 511.887C650.201 458.757 587.065 416 510.028 416C432.991 416 367.482 453.642 359.453 511.887C354.58 547.231 378.97 566.415 406.499 582.158C433.841 597.794 478.043 612 516.049 612Z" fill="#2C002A"/>
</g>
<path d="M510.635 612.795C557.627 612.795 595.202 585.813 620.941 558.537C638.608 539.815 649.079 516.177 649.35 489.695C650.018 424.365 584.419 371.791 504.379 371.791C424.338 371.791 356.274 418.076 347.931 489.695C342.869 533.154 368.21 556.743 396.813 576.101C425.22 595.327 471.146 612.795 510.635 612.795Z" fill="#FFDBB5"/>
<path d="M509.867 574.742C553.922 574.742 589.149 552.02 613.279 529.051C629.841 513.285 639.658 493.379 639.912 471.079C640.539 416.064 579.04 371.792 504.002 371.792C428.963 371.792 365.154 410.768 357.333 471.079C352.586 507.676 376.344 527.54 403.159 543.842C429.791 560.032 472.846 574.742 509.867 574.742Z" fill="#FFBD7A"/>
<path d="M385.97 472.633C385.97 470.955 390.67 469.758 403.92 469.758C417.171 469.758 421.871 470.955 421.871 472.633C421.871 474.311 417.171 475.509 403.92 475.508C390.67 475.509 385.97 474.311 385.97 472.633Z" fill="#2C002A"/>
<path d="M486.034 465.87C486.034 462.779 492.319 460.572 510.034 460.572C527.75 460.572 534.034 462.779 534.034 465.87C534.034 468.961 527.75 471.167 510.034 471.167C492.319 471.167 486.034 468.961 486.034 465.87Z" fill="#2C002A"/>
</svg>
