<svg width="997" height="997" viewBox="0 0 997 997" fill="none" xmlns="http://www.w3.org/2000/svg">

<path d="M486.604 708.842C517.164 708.842 564.826 709.521 594.424 691.269C630.578 668.974 648.925 632.463 649.265 599.843C649.934 535.667 589.721 475.79 509.577 475.79C472.983 475.79 431.2 483.476 404.158 500.475C371.974 520.705 347.456 547.546 347.456 590.4C347.456 659.698 394.127 708.842 486.604 708.842Z" fill="#FFBBC7"/>
<path d="M487.339 672.046C515.989 672.046 560.672 672.618 588.42 657.248C622.315 638.473 639.514 607.727 639.833 580.257C640.46 526.214 584.011 475.792 508.875 475.792C474.569 475.792 435.398 482.263 410.045 496.578C379.873 513.615 356.887 536.217 356.887 572.305C356.887 630.661 400.641 672.046 487.339 672.046Z" fill="#FF7AA0"/>
<g opacity="0.16">
<path d="M505.183 669C565.842 669 647.245 623.569 647.798 576.799C648.395 526.205 594.596 479 522.988 479C490.292 479 455.343 487.995 431.181 501.396C402.426 517.346 378.135 535.57 378.135 569.355C378.136 623.987 437.018 669 505.183 669Z" fill="#2C002A"/>
</g>
<path d="M521.646 668.795C589.537 668.795 680.644 611.168 681.262 551.844C681.931 487.668 621.719 427.791 541.574 427.791C504.98 427.791 465.865 439.2 438.823 456.199C406.639 476.43 379.453 499.547 379.453 542.401C379.453 611.699 445.355 668.795 521.646 668.795Z" fill="#DEC3F5"/>
<path d="M522.19 630.742C585.837 630.742 671.25 582.215 671.83 532.257C672.457 478.214 616.008 427.792 540.872 427.792C506.566 427.792 469.895 437.399 444.543 451.714C414.371 468.751 388.884 488.217 388.884 524.305C388.884 582.661 450.667 630.742 522.19 630.742Z" fill="#BA8BFF"/>
<g opacity="0.16">
<path d="M516.284 612C561.513 612 597.678 590.056 622.45 567.874C639.454 552.648 649.532 533.424 649.792 511.887C650.436 458.757 587.299 416 510.262 416C433.226 416 367.717 453.642 359.687 511.887C354.814 547.231 379.204 566.415 406.734 582.158C434.075 597.794 478.277 612 516.284 612Z" fill="#2C002A"/>
</g>
<path d="M510.635 612.795C557.627 612.795 595.202 585.813 620.941 558.537C638.608 539.815 649.079 516.177 649.35 489.695C650.018 424.365 584.419 371.791 504.379 371.791C424.338 371.791 356.274 418.076 347.931 489.695C342.869 533.154 368.21 556.743 396.813 576.101C425.22 595.327 471.146 612.795 510.635 612.795Z" fill="#FFDBB5"/>
<path d="M509.867 574.742C553.922 574.742 589.149 552.02 613.279 529.051C629.841 513.285 639.658 493.379 639.912 471.079C640.539 416.064 579.04 371.792 504.002 371.792C428.963 371.792 365.154 410.768 357.333 471.079C352.586 507.676 376.344 527.54 403.159 543.842C429.791 560.032 472.846 574.742 509.867 574.742Z" fill="#FFBD7A"/>
<path d="M385.97 472.633C385.97 455.175 390.67 442.714 403.92 442.715C417.171 442.714 421.871 455.175 421.871 472.633C421.871 490.09 417.171 502.551 403.92 502.55C390.67 502.551 385.97 490.09 385.97 472.633Z" fill="#2C002A"/>
<path d="M486.034 465.869C486.034 442.529 492.319 425.868 510.034 425.869C527.75 425.868 534.034 442.529 534.034 465.869C534.034 489.21 527.75 505.87 510.034 505.869C492.319 505.87 486.034 489.21 486.034 465.869Z" fill="#2C002A"/>
</svg>
