<svg width="997" height="997" viewBox="0 0 997 997" fill="none" xmlns="http://www.w3.org/2000/svg">

<path d="M513.062 700.086C543.581 701.686 591.142 704.858 621.654 688.18C658.926 667.807 679.158 632.307 681.205 599.749C685.232 535.696 628.235 472.75 548.2 468.556C511.657 466.641 469.529 472.129 441.634 487.689C408.436 506.208 382.546 531.728 380.304 574.523C376.677 643.727 420.712 695.246 513.062 700.086Z" fill="#FFBBC7"/>
<path d="M515.722 663.378C544.333 664.877 588.925 667.787 617.439 653.89C652.27 636.914 671.055 607.11 672.811 579.695C676.266 525.759 622.533 472.451 547.5 468.519C513.241 466.724 473.785 471.137 447.718 484.105C416.695 499.539 392.558 520.908 390.669 556.946C387.615 615.222 429.143 658.84 515.722 663.378Z" fill="#FF7AA0"/>
<g opacity="0.16">
<path d="M548.218 650.623C608.877 650.623 690.28 605.192 690.833 558.422C691.43 507.828 637.631 460.623 566.023 460.623C533.327 460.623 498.379 469.618 474.216 483.019C445.461 498.969 421.171 517.193 421.171 550.978C421.171 605.61 480.053 650.623 548.218 650.623Z" fill="#2C002A"/>
</g>
<path d="M551.73 651.608C619.362 657.525 715.145 608.058 720.932 549.013C727.192 485.139 672.426 420.243 592.587 413.258C556.132 410.069 516.172 418.025 487.75 432.603C453.926 449.952 424.829 470.611 421.094 513.302C415.054 582.336 475.729 644.959 551.73 651.608Z" fill="#DEC3F5"/>
<path d="M555.587 613.746C618.992 619.293 708.31 578.394 713.241 528.678C718.577 474.895 666.736 419.745 591.887 413.196C557.711 410.206 520.343 416.581 493.839 428.632C462.297 442.974 435.21 460.145 432.065 496.095C426.979 554.23 484.336 607.512 555.587 613.746Z" fill="#BA8BFF"/>
<g opacity="0.16">
<path d="M566.69 597.198C611.671 601.926 649.931 583.883 676.887 564.411C695.389 551.046 707.421 532.981 709.932 511.59C716.125 458.817 657.804 409.695 581.189 401.643C504.574 393.59 435.49 424.178 421.416 481.265C412.875 515.906 435.126 537.534 460.859 556.069C486.416 574.477 528.892 593.226 566.69 597.198Z" fill="#2C002A"/>
</g>
<path d="M560.772 589.454C607.421 595.123 647.977 572.871 676.818 548.9C696.615 532.445 709.861 510.243 713.325 483.988C721.87 419.216 663.093 359.112 583.637 349.456C504.181 339.799 431.03 377.534 414.108 447.624C403.839 490.154 426.15 516.628 452.208 539.296C478.089 561.809 521.572 584.69 560.772 589.454Z" fill="#FFDBB5"/>
<path d="M564.601 551.586C608.334 556.901 646.045 538.595 672.77 518.705C691.113 505.052 703.26 486.476 706.202 464.37C713.461 409.832 657.753 358.463 583.263 349.411C508.773 340.358 440.727 371.351 425.687 430.279C416.56 466.035 437.747 488.621 462.4 508.038C486.884 527.323 527.851 547.12 564.601 551.586Z" fill="#FFBD7A"/>
<path d="M532.399 412.735C535.215 389.565 543.463 373.784 561.049 375.923C578.635 378.059 582.864 395.356 580.048 418.526C577.232 441.696 568.984 457.477 551.398 455.338C533.812 453.202 529.583 435.905 532.399 412.735Z" fill="#2C002A"/>
<path d="M630.128 427.556C632.208 410.436 638.303 398.776 651.297 400.356C664.291 401.934 667.415 414.715 665.335 431.834C663.254 448.954 657.159 460.614 644.166 459.034C631.172 457.456 628.047 444.676 630.128 427.556Z" fill="#2C002A"/>
</svg>
