<svg width="997" height="997" viewBox="0 0 997 997" fill="none" xmlns="http://www.w3.org/2000/svg">

<path d="M486.604 681.415C517.164 681.415 564.826 681.987 594.424 666.617C630.578 647.842 648.925 617.096 649.265 589.626C649.934 535.583 589.721 485.161 509.577 485.161C472.983 485.161 431.2 491.633 404.158 505.948C371.974 522.984 347.456 545.586 347.456 581.674C347.456 640.031 394.127 681.415 486.604 681.415Z" fill="#FFBBC7"/>
<path d="M487.339 632.351C515.989 632.351 560.672 632.78 588.42 621.253C622.315 607.171 639.514 584.112 639.833 563.51C640.46 522.977 584.011 485.161 508.875 485.161C474.569 485.161 435.398 490.014 410.045 500.751C379.873 513.528 356.887 530.48 356.887 557.545C356.887 601.313 400.641 632.351 487.339 632.351Z" fill="#FF7AA0"/>
<path d="M521.646 619.111C589.537 619.111 680.644 570.584 681.262 520.626C681.931 466.583 621.719 416.161 541.574 416.161C504.98 416.161 465.865 425.768 438.823 440.084C406.639 457.12 379.453 476.586 379.453 512.674C379.453 571.031 445.355 619.111 521.646 619.111Z" fill="#DEC3F5"/>
<path d="M522.19 568.373C585.837 568.373 671.25 531.977 671.83 494.509C672.457 453.977 616.008 416.16 540.872 416.16C506.566 416.16 469.895 423.366 444.543 434.102C414.371 446.88 388.884 461.479 388.884 488.545C388.884 532.313 450.667 568.373 522.19 568.373Z" fill="#BA8BFF"/>
<g opacity="0.16">
<path d="M517.265 541C554.775 541 584.769 525.886 605.314 510.607C619.416 500.119 627.774 486.878 627.99 472.045C628.524 435.45 576.162 406 512.271 406C448.38 406 394.051 431.927 387.391 472.045C383.35 496.388 403.578 509.602 426.409 520.446C449.085 531.215 485.744 541 517.265 541Z" fill="#2C002A"/>
</g>
<path d="M510.635 512.111C557.627 512.111 595.202 489.389 620.941 466.42C638.608 450.654 649.079 430.748 649.35 408.449C650.018 353.434 584.419 309.161 504.379 309.161C424.338 309.161 356.274 348.137 347.931 408.449C342.869 445.045 368.21 464.909 396.813 481.211C425.22 497.401 471.146 512.111 510.635 512.111Z" fill="#FFDBB5"/>
<path d="M509.867 461.373C553.922 461.373 589.149 444.332 613.279 427.105C629.841 415.28 639.658 400.351 639.912 383.626C640.539 342.365 579.04 309.16 504.002 309.16C428.963 309.16 365.154 338.392 357.333 383.626C352.586 411.073 376.344 425.972 403.159 438.198C429.791 450.341 472.846 461.373 509.867 461.373Z" fill="#FFBD7A"/>
<path d="M385.97 336.633C385.97 334.955 390.67 333.758 403.92 333.758C417.171 333.758 421.871 334.955 421.871 336.633C421.871 338.311 417.171 339.509 403.92 339.508C390.67 339.509 385.97 338.311 385.97 336.633Z" fill="#2C002A"/>
<path d="M486.034 337.87C486.034 334.779 492.319 332.572 510.034 332.572C527.75 332.572 534.034 334.779 534.034 337.87C534.034 340.961 527.75 343.167 510.034 343.167C492.319 343.167 486.034 340.961 486.034 337.87Z" fill="#2C002A"/>
</svg>
